<svg width="34" height="15" viewBox="0 0 34 15" fill="none" xmlns="http://www.w3.org/2000/svg">
<path d="M8 0L9.68386 5.18237H15.1329L10.7245 8.38525L12.4084 13.5676L8 10.3647L3.59161 13.5676L5.27547 8.38525L0.867076 5.18237H6.31614L8 0Z" fill="#D69E2E"/>
<path d="M21.62 10.09C21.3133 10.09 21.0167 10.0567 20.73 9.99C20.4433 9.92333 20.1767 9.82667 19.93 9.7C19.6833 9.57333 19.4633 9.42 19.27 9.24L19.6 8.56C19.9133 8.82667 20.2333 9.02333 20.56 9.15C20.8867 9.27667 21.2367 9.34 21.61 9.34C22.1033 9.34 22.4867 9.20667 22.76 8.94C23.04 8.67333 23.18 8.31333 23.18 7.86C23.18 7.4 23.0467 7.02667 22.78 6.74C22.52 6.45333 22.16 6.31 21.7 6.31C21.3733 6.31 21.0833 6.37667 20.83 6.51C20.5767 6.63667 20.3467 6.84667 20.14 7.14H19.49V2.95H23.64V3.69H20.3V6.41H20.16C20.3333 6.15667 20.5633 5.95667 20.85 5.81C21.1433 5.65667 21.4733 5.58 21.84 5.58C22.2867 5.58 22.6733 5.67333 23 5.86C23.3267 6.04667 23.5767 6.30667 23.75 6.64C23.93 6.97333 24.02 7.36333 24.02 7.81C24.02 8.27 23.92 8.67 23.72 9.01C23.5267 9.35 23.25 9.61667 22.89 9.81C22.5367 9.99667 22.1133 10.09 21.62 10.09ZM25.1661 10V8.94H26.2561V10H25.1661ZM29.9277 10.09C29.3877 10.09 28.9311 9.95333 28.5577 9.68C28.1911 9.4 27.9144 8.99333 27.7277 8.46C27.5411 7.92 27.4477 7.25667 27.4477 6.47C27.4477 5.68333 27.5411 5.02333 27.7277 4.49C27.9144 3.95 28.1911 3.54333 28.5577 3.27C28.9311 2.99667 29.3877 2.86 29.9277 2.86C30.4744 2.86 30.9311 2.99667 31.2977 3.27C31.6644 3.54333 31.9411 3.94667 32.1277 4.48C32.3144 5.01333 32.4077 5.67333 32.4077 6.46C32.4077 7.24667 32.3144 7.91 32.1277 8.45C31.9411 8.99 31.6611 9.4 31.2877 9.68C30.9211 9.95333 30.4677 10.09 29.9277 10.09ZM29.9277 9.35C30.4811 9.35 30.8911 9.11667 31.1577 8.65C31.4244 8.17667 31.5577 7.44667 31.5577 6.46C31.5577 5.47333 31.4244 4.75 31.1577 4.29C30.8977 3.83 30.4877 3.6 29.9277 3.6C29.3744 3.6 28.9644 3.83333 28.6977 4.3C28.4311 4.76 28.2977 5.48333 28.2977 6.47C28.2977 7.45 28.4311 8.17667 28.6977 8.65C28.9644 9.11667 29.3744 9.35 29.9277 9.35Z" fill="#999999"/>
</svg>
