<svg width="33" height="16" viewBox="0 0 33 16" fill="none" xmlns="http://www.w3.org/2000/svg">
<path d="M7.5 0.5L9.18386 5.68237H14.6329L10.2245 8.88525L11.9084 14.0676L7.5 10.8647L3.09161 14.0676L4.77547 8.88525L0.367076 5.68237H5.81614L7.5 0.5Z" fill="#D69E2E"/>
<path d="M19.12 10.5L22.58 3.81L22.6 4.2H18.66V3.45H23.34V4.09L20.06 10.5H19.12ZM24.6661 10.5V9.44H25.7561V10.5H24.6661ZM29.4277 10.59C28.8877 10.59 28.4311 10.4533 28.0577 10.18C27.6911 9.9 27.4144 9.49333 27.2277 8.96C27.0411 8.42 26.9477 7.75667 26.9477 6.97C26.9477 6.18333 27.0411 5.52333 27.2277 4.99C27.4144 4.45 27.6911 4.04333 28.0577 3.77C28.4311 3.49667 28.8877 3.36 29.4277 3.36C29.9744 3.36 30.4311 3.49667 30.7977 3.77C31.1644 4.04333 31.4411 4.44667 31.6277 4.98C31.8144 5.51333 31.9077 6.17333 31.9077 6.96C31.9077 7.74667 31.8144 8.41 31.6277 8.95C31.4411 9.49 31.1611 9.9 30.7877 10.18C30.4211 10.4533 29.9677 10.59 29.4277 10.59ZM29.4277 9.85C29.9811 9.85 30.3911 9.61667 30.6577 9.15C30.9244 8.67667 31.0577 7.94667 31.0577 6.96C31.0577 5.97333 30.9244 5.25 30.6577 4.79C30.3977 4.33 29.9877 4.1 29.4277 4.1C28.8744 4.1 28.4644 4.33333 28.1977 4.8C27.9311 5.26 27.7977 5.98333 27.7977 6.97C27.7977 7.95 27.9311 8.67667 28.1977 9.15C28.4644 9.61667 28.8744 9.85 29.4277 9.85Z" fill="#999999"/>
</svg>
