<svg width="33" height="16" viewBox="0 0 33 16" fill="none" xmlns="http://www.w3.org/2000/svg">
<path d="M7.5 0.5L9.18386 5.68237H14.6329L10.2245 8.88525L11.9084 14.0676L7.5 10.8647L3.09161 14.0676L4.77547 8.88525L0.367076 5.68237H5.81614L7.5 0.5Z" fill="#D69E2E"/>
<path d="M21 10.59C20.2067 10.59 19.5867 10.42 19.14 10.08C18.6933 9.73333 18.47 9.25333 18.47 8.64C18.47 8.31333 18.5333 8.02667 18.66 7.78C18.7933 7.53333 18.9767 7.33 19.21 7.17C19.4433 7.01 19.71 6.90667 20.01 6.86V6.94C19.7433 6.87333 19.5067 6.76 19.3 6.6C19.0933 6.44 18.93 6.24333 18.81 6.01C18.6967 5.77667 18.64 5.52 18.64 5.24C18.64 4.65333 18.8533 4.19333 19.28 3.86C19.7067 3.52667 20.28 3.36 21 3.36C21.72 3.36 22.2933 3.52667 22.72 3.86C23.1467 4.19333 23.36 4.65333 23.36 5.24C23.36 5.52 23.3 5.78 23.18 6.02C23.0667 6.25333 22.9067 6.45 22.7 6.61C22.5 6.76333 22.2633 6.87333 21.99 6.94V6.86C22.29 6.90667 22.5533 7.01 22.78 7.17C23.0133 7.33 23.1967 7.53333 23.33 7.78C23.4633 8.02667 23.53 8.31333 23.53 8.64C23.53 9.25333 23.3067 9.73333 22.86 10.08C22.4133 10.42 21.7933 10.59 21 10.59ZM21 9.88C21.56 9.88 21.9833 9.77 22.27 9.55C22.5633 9.33 22.71 9.00667 22.71 8.58C22.71 8.15333 22.5633 7.83 22.27 7.61C21.9833 7.39 21.56 7.28 21 7.28C20.4467 7.28 20.0233 7.39 19.73 7.61C19.4367 7.83 19.29 8.15333 19.29 8.58C19.29 9.00667 19.4367 9.33 19.73 9.55C20.0233 9.77 20.4467 9.88 21 9.88ZM21 6.57C21.4867 6.57 21.8667 6.46 22.14 6.24C22.4133 6.01333 22.55 5.70333 22.55 5.31C22.55 4.92333 22.4133 4.62 22.14 4.4C21.8667 4.18 21.4867 4.07 21 4.07C20.52 4.07 20.1433 4.18 19.87 4.4C19.5967 4.62 19.46 4.92333 19.46 5.31C19.46 5.70333 19.5967 6.01333 19.87 6.24C20.1433 6.46 20.52 6.57 21 6.57ZM24.6661 10.5V9.44H25.7561V10.5H24.6661ZM29.4277 10.59C28.8877 10.59 28.4311 10.4533 28.0577 10.18C27.6911 9.9 27.4144 9.49333 27.2277 8.96C27.0411 8.42 26.9477 7.75667 26.9477 6.97C26.9477 6.18333 27.0411 5.52333 27.2277 4.99C27.4144 4.45 27.6911 4.04333 28.0577 3.77C28.4311 3.49667 28.8877 3.36 29.4277 3.36C29.9744 3.36 30.4311 3.49667 30.7977 3.77C31.1644 4.04333 31.4411 4.44667 31.6277 4.98C31.8144 5.51333 31.9077 6.17333 31.9077 6.96C31.9077 7.74667 31.8144 8.41 31.6277 8.95C31.4411 9.49 31.1611 9.9 30.7877 10.18C30.4211 10.4533 29.9677 10.59 29.4277 10.59ZM29.4277 9.85C29.9811 9.85 30.3911 9.61667 30.6577 9.15C30.9244 8.67667 31.0577 7.94667 31.0577 6.96C31.0577 5.97333 30.9244 5.25 30.6577 4.79C30.3977 4.33 29.9877 4.1 29.4277 4.1C28.8744 4.1 28.4644 4.33333 28.1977 4.8C27.9311 5.26 27.7977 5.98333 27.7977 6.97C27.7977 7.95 27.9311 8.67667 28.1977 9.15C28.4644 9.61667 28.8744 9.85 29.4277 9.85Z" fill="#999999"/>
</svg>
