<svg width="33" height="16" viewBox="0 0 33 16" fill="none" xmlns="http://www.w3.org/2000/svg">
<path d="M7.5 0.5L9.18386 5.68237H14.6329L10.2245 8.88525L11.9084 14.0676L7.5 10.8647L3.09161 14.0676L4.77547 8.88525L0.367076 5.68237H5.81614L7.5 0.5Z" fill="#D69E2E"/>
<path d="M21.24 10.59C20.68 10.59 20.2033 10.4533 19.81 10.18C19.4233 9.90667 19.1267 9.51333 18.92 9C18.7133 8.48667 18.61 7.86667 18.61 7.14C18.61 6.32667 18.7233 5.64 18.95 5.08C19.1767 4.52 19.5033 4.09333 19.93 3.8C20.3567 3.50667 20.87 3.36 21.47 3.36C21.7233 3.36 21.97 3.39333 22.21 3.46C22.4567 3.52667 22.6867 3.62333 22.9 3.75C23.12 3.87667 23.3133 4.03 23.48 4.21L23.16 4.87C22.9067 4.60333 22.6367 4.41 22.35 4.29C22.0633 4.17 21.7667 4.11 21.46 4.11C21.1333 4.11 20.8433 4.17333 20.59 4.3C20.3367 4.42 20.1233 4.60333 19.95 4.85C19.7767 5.09 19.6467 5.39 19.56 5.75C19.4733 6.11 19.43 6.52667 19.43 7V7.76H19.38C19.4333 7.41333 19.55 7.11333 19.73 6.86C19.91 6.60667 20.14 6.41333 20.42 6.28C20.7 6.14 21.0067 6.07 21.34 6.07C21.76 6.07 22.13 6.16667 22.45 6.36C22.7767 6.54667 23.03 6.80667 23.21 7.14C23.3967 7.47333 23.49 7.86 23.49 8.3C23.49 8.74 23.3933 9.13333 23.2 9.48C23.0133 9.82667 22.75 10.1 22.41 10.3C22.07 10.4933 21.68 10.59 21.24 10.59ZM21.19 9.86C21.4833 9.86 21.74 9.79667 21.96 9.67C22.1867 9.54333 22.3633 9.36333 22.49 9.13C22.6167 8.89667 22.68 8.62667 22.68 8.32C22.68 8.02 22.6167 7.75667 22.49 7.53C22.3633 7.29667 22.1867 7.11667 21.96 6.99C21.74 6.85667 21.4833 6.79 21.19 6.79C20.89 6.79 20.6267 6.85667 20.4 6.99C20.18 7.11667 20.0067 7.29667 19.88 7.53C19.7533 7.75667 19.69 8.02 19.69 8.32C19.69 8.62667 19.7533 8.89667 19.88 9.13C20.0067 9.36333 20.18 9.54333 20.4 9.67C20.6267 9.79667 20.89 9.86 21.19 9.86ZM24.6661 10.5V9.44H25.7561V10.5H24.6661ZM29.4277 10.59C28.8877 10.59 28.4311 10.4533 28.0577 10.18C27.6911 9.9 27.4144 9.49333 27.2277 8.96C27.0411 8.42 26.9477 7.75667 26.9477 6.97C26.9477 6.18333 27.0411 5.52333 27.2277 4.99C27.4144 4.45 27.6911 4.04333 28.0577 3.77C28.4311 3.49667 28.8877 3.36 29.4277 3.36C29.9744 3.36 30.4311 3.49667 30.7977 3.77C31.1644 4.04333 31.4411 4.44667 31.6277 4.98C31.8144 5.51333 31.9077 6.17333 31.9077 6.96C31.9077 7.74667 31.8144 8.41 31.6277 8.95C31.4411 9.49 31.1611 9.9 30.7877 10.18C30.4211 10.4533 29.9677 10.59 29.4277 10.59ZM29.4277 9.85C29.9811 9.85 30.3911 9.61667 30.6577 9.15C30.9244 8.67667 31.0577 7.94667 31.0577 6.96C31.0577 5.97333 30.9244 5.25 30.6577 4.79C30.3977 4.33 29.9877 4.1 29.4277 4.1C28.8744 4.1 28.4644 4.33333 28.1977 4.8C27.9311 5.26 27.7977 5.98333 27.7977 6.97C27.7977 7.95 27.9311 8.67667 28.1977 9.15C28.4644 9.61667 28.8744 9.85 29.4277 9.85Z" fill="#999999"/>
</svg>
